<?xml version="1.0" ?><!DOCTYPE svg  PUBLIC '-//W3C//DTD SVG 1.1//EN'  'http://www.w3.org/Graphics/SVG/1.1/DTD/svg11.dtd'><svg height="100%" style="fill-rule:evenodd;clip-rule:evenodd;stroke-linejoin:round;stroke-miterlimit:2;" version="1.1" viewBox="0 0 32 32" width="100%" xml:space="preserve" xmlns="http://www.w3.org/2000/svg" xmlns:serif="http://www.serif.com/" xmlns:xlink="http://www.w3.org/1999/xlink"><g transform="matrix(1,0,0,1,-240,-144)"><g transform="matrix(1.0129,0,0,1.0129,-3.12068,-2.22328)"><path d="M255.818,149.909C258.979,146.748 264.112,146.748 267.273,149.909C270.434,153.07 270.434,158.202 267.273,161.363C267.096,161.54 258.577,170.059 256.525,172.111C256.135,172.501 255.501,172.501 255.111,172.111C253.059,170.059 244.54,161.54 244.363,161.363C241.202,158.202 241.202,153.07 244.363,149.909C247.524,146.748 252.657,146.748 255.818,149.909Z" style="fill:rgb(144,224,239);"/></g><g transform="matrix(1.0129,0,0,1.0129,-3.12068,-2.22328)"><path d="M255.818,148.58C252.251,145.678 246.987,145.889 243.665,149.211C240.119,152.757 240.119,158.515 243.665,162.061C243.842,162.238 252.361,170.758 254.413,172.809C255.189,173.585 256.447,173.585 257.223,172.809L267.971,162.061C271.517,158.515 271.517,152.757 267.971,149.211C264.649,145.888 259.385,145.678 255.818,148.58ZM255.12,150.607L255.818,151.305L256.516,150.607C259.292,147.831 263.799,147.831 266.575,150.607C269.35,153.383 269.35,157.89 266.575,160.665L255.827,171.413C255.822,171.418 255.814,171.418 255.809,171.413C255.809,171.413 245.061,160.665 245.061,160.665C242.286,157.89 242.286,153.383 245.061,150.607C247.837,147.831 252.344,147.831 255.12,150.607Z" style="fill:rgb(25,144,167);"/></g></g></svg>