<?xml version="1.0" ?><svg height="32.000031" id="svg5" version="1.1" viewBox="0 0 32 32.000031" width="32" xmlns="http://www.w3.org/2000/svg" xmlns:svg="http://www.w3.org/2000/svg"><defs id="defs2"/><g id="layer1" transform="translate(36.000001,-484)"><path d="m -20,491 c -2.749576,0 -5,2.25042 -5,5 0,2.74958 2.250424,5 5,5 2.749576,0 5,-2.25042 5,-5 0,-2.74958 -2.250424,-5 -5,-5 z m 0,2 c 1.668697,0 3,1.3313 3,3 0,1.6687 -1.331303,3 -3,3 -1.668697,0 -3,-1.3313 -3,-3 0,-1.6687 1.331303,-3 3,-3 z" id="path27515" style="color:#000000;fill:#1E90FF;fill-opacity:1;fill-rule:evenodd;stroke-linecap:round;stroke-linejoin:round;stroke-miterlimit:4.1;-inkscape-stroke:none"/><path d="m -20,499 c -4.958713,0 -9,4.04129 -9,9 a 1.0001,1.0001 0 0 0 0,0.006 c 0.0058,0.9673 0.16708,1.92789 0.478516,2.84375 a 1,1 0 0 0 1.269531,0.625 1,1 0 0 0 0.625,-1.26953 C -26.868551,509.4946 -26.994838,508.75043 -27,508 v -0.002 c 0.0011,-3.87691 3.122832,-6.99805 7,-6.99805 3.877168,0 6.998927,3.12114 7,6.99805 -0.0049,0.75106 -0.131237,1.49592 -0.373047,2.20703 a 1,1 0 0 0 0.625,1.26953 1,1 0 0 0 1.269531,-0.625 c 0.311432,-0.91585 0.472687,-1.87642 0.478516,-2.84375 A 1.0001,1.0001 0 0 0 -11,508 c 0,-4.95871 -4.041287,-9 -9,-9 z" id="path27517" style="color:#000000;fill:#1E90FF;fill-opacity:1;fill-rule:evenodd;stroke-linecap:round;stroke-linejoin:round;stroke-miterlimit:4.1;-inkscape-stroke:none"/><path d="m -20,486 c -7.720134,0 -14,6.27987 -14,14 0,7.72013 6.279866,14 14,14 7.720134,0 14,-6.27987 14,-14 0,-7.72013 -6.279866,-14 -14,-14 z m 0,2 c 6.639255,0 12,5.36075 12,12 0,6.63925 -5.360745,12 -12,12 -6.639255,0 -12,-5.36075 -12,-12 0,-6.63925 5.360745,-12 12,-12 z" id="circle27485" style="color:#000000;fill:#1E90FF;fill-opacity:1;fill-rule:evenodd;stroke-linecap:round;stroke-linejoin:round;stroke-miterlimit:4.1;-inkscape-stroke:none"/></g></svg>